<svg xmlns="http://www.w3.org/2000/svg" xmlns:xlink="http://www.w3.org/1999/xlink" xmlns:lucid="lucid" width="1160" height="800"><g transform="translate(-780 -120)" lucid:page-tab-id="0_0"><path d="M800 170c0-16.57 13.43-30 30-30h1060c16.57 0 30 13.43 30 30v700c0 16.57-13.43 30-30 30H830c-16.57 0-30-13.43-30-30z" fill-opacity="0"/><path d="M815.04 144.1l3.17-1.7 4.72-1.56 4.93-.76L830 140h14.72m14.72 0h29.45m14.7 0h29.46m14.72 0h29.44m14.72 0h29.45m14.7 0h29.46m14.72 0h29.44m14.72 0h29.45m14.7 0h29.46m14.72 0h29.44m14.72 0h29.45m14.7 0h29.46m14.72 0h29.44m14.72 0h29.45m14.7 0h29.46m14.72 0h29.44m14.72 0h29.45m14.7 0h29.46m14.72 0h29.44m14.72 0h29.45m14.7 0h29.46m14.72 0h29.44m14.72 0h29.45m14.7 0h29.46m14.72 0H1890l5 .42 4.82 1.22 4.54 2 .6.42m10.95 10.98l1.7 3.17 1.56 4.72.76 4.93.08 2.15v14.58m0 14.6v29.15m0 14.6v29.15m0 14.6v29.15m0 14.6v29.15m0 14.6v29.15m0 14.6v29.15m0 14.6v29.15m0 14.6v29.15m0 14.6v29.15m0 14.6v29.15m0 14.6v29.15m0 14.6v29.15m0 14.6v29.15m0 14.6v29.15m0 14.6v29.15m0 14.6V870l-.42 5-1.22 4.82-2 4.54-.42.6m-10.98 10.95l-3.17 1.7-4.72 1.56-4.93.76-2.15.08h-14.72m-14.72 0h-29.45m-14.7 0h-29.46m-14.72 0h-29.44m-14.72 0h-29.45m-14.7 0h-29.46m-14.72 0h-29.44m-14.72 0h-29.45m-14.7 0h-29.46m-14.72 0h-29.44m-14.72 0h-29.45m-14.7 0h-29.46m-14.72 0h-29.44m-14.72 0h-29.45m-14.7 0h-29.46m-14.72 0h-29.44m-14.72 0h-29.45m-14.7 0h-29.46m-14.72 0h-29.44m-14.72 0h-29.45m-14.7 0h-29.46m-14.72 0h-29.44m-14.72 0H903.6m-14.7 0h-29.46m-14.72 0H830l-5-.42-4.82-1.22-4.54-2-.6-.42m-10.95-10.98l-1.7-3.17-1.56-4.72-.76-4.93L800 870v-14.58m0-14.6v-29.15m0-14.6v-29.15m0-14.6v-29.15m0-14.6v-29.15m0-14.6v-29.15m0-14.6v-29.15m0-14.6v-29.15m0-14.6v-29.15m0-14.6v-29.15m0-14.6v-29.15m0-14.6v-29.15m0-14.6v-29.15m0-14.6v-29.15m0-14.6v-29.15m0-14.6v-29.15m0-14.6V170l.42-5 1.22-4.82 2-4.54.42-.6" stroke="#c3e5b5" stroke-width="3" fill="none"/><path d="M853.33 165c0-2.76 2.24-5 5-5h123.34c2.76 0 5 2.24 5 5v73.33c0 2.76-2.24 5-5 5H858.33c-2.76 0-5-2.24-5-5z" stroke="#c3e5b5" stroke-width="3" fill="#e1f2da"/><use xlink:href="#a" transform="matrix(1,0,0,1,858.3333503825573,165) translate(25.074999999999996 14.4)"/><use xlink:href="#b" transform="matrix(1,0,0,1,858.3333503825573,165) translate(35.025 36)"/><path d="M1740 550c0-2.76 2.24-5 5-5h150c2.76 0 5 2.24 5 5v80c0 2.76-2.24 5-5 5h-150c-2.76 0-5-2.24-5-5z" stroke="#c3e5b5" stroke-width="3" fill="#e1f2da"/><use xlink:href="#c" transform="matrix(1,0,0,1,1745,550) translate(14.100000000000001 14.4)"/><use xlink:href="#d" transform="matrix(1,0,0,1,1745,550) translate(54.550000000000004 14.4)"/><use xlink:href="#e" transform="matrix(1,0,0,1,1745,550) translate(121.9 14.4)"/><use xlink:href="#f" transform="matrix(1,0,0,1,1745,550) translate(55.05 36)"/><path d="M820 330c0-16.57 13.43-30 30-30h800c16.57 0 30 13.43 30 30v520c0 16.57-13.43 30-30 30H850c-16.57 0-30-13.43-30-30z" fill-opacity="0"/><path d="M835.04 304.1l3.17-1.7 4.72-1.56 4.93-.76L850 300h14.8m14.83 0h29.63m14.8 0h29.64m14.82 0h29.63m14.8 0h29.64m14.8 0h29.64m14.8 0h29.64m14.82 0h29.63m14.8 0h29.64m14.82 0h29.6m14.83 0h29.63m14.8 0h29.64m14.82 0h29.63m14.8 0h29.64m14.8 0h29.64m14.8 0h29.64m14.82 0h29.63m14.8 0h29.64m14.82 0h14.8l5 .42 4.82 1.22 4.54 2 .6.42m10.95 10.98l1.7 3.17 1.56 4.72.76 4.93.08 2.15v14.44m0 14.45v28.88m0 14.44v28.9m0 14.44v28.88m0 14.45v28.88m0 14.44v28.9m0 14.44v28.88m0 14.45v28.88m0 14.44v28.9m0 14.44v28.88m0 14.45v28.88m0 14.44v28.9m0 14.44V850l-.42 5-1.22 4.82-2 4.54-.42.6m-10.98 10.95l-3.17 1.7-4.72 1.56-4.93.76-2.15.08h-14.8m-14.83 0h-29.63m-14.8 0h-29.64m-14.82 0h-29.63m-14.8 0h-29.64m-14.8 0h-29.64m-14.8 0h-29.64m-14.82 0h-29.63m-14.8 0h-29.64m-14.82 0h-29.6m-14.83 0h-29.63m-14.8 0h-29.64m-14.82 0h-29.63m-14.8 0h-29.64m-14.8 0h-29.64m-14.8 0H968.5m-14.82 0h-29.63m-14.8 0h-29.64m-14.82 0H850l-5-.42-4.82-1.22-4.54-2-.6-.42m-10.95-10.98l-1.7-3.17-1.56-4.72-.76-4.93L820 850v-14.44m0-14.45v-28.88m0-14.44v-28.9m0-14.44v-28.88m0-14.45v-28.88m0-14.44v-28.9m0-14.44v-28.88m0-14.45v-28.88m0-14.44v-28.9m0-14.44v-28.88m0-14.45v-28.88m0-14.44v-28.9m0-14.44V330l.42-5 1.22-4.82 2-4.54.42-.6" stroke="#e5e5e5" stroke-width="3" fill="none"/><use xlink:href="#g" transform="matrix(1,0,0,1,820,850) translate(0 9.333333333333336)"/><use xlink:href="#h" transform="matrix(1,0,0,1,820,850) translate(20.000000000000004 9.333333333333336)"/><path d="M840 395c0-2.76 2.24-5 5-5h150c2.76 0 5 2.24 5 5v70c0 2.76-2.24 5-5 5H845c-2.76 0-5-2.24-5-5z" stroke="#ccc" stroke-width="2" fill="#ededed"/><use xlink:href="#i" transform="matrix(1,0,0,1,845,395) translate(27.374999999999993 38.6)"/><use xlink:href="#j" transform="matrix(1,0,0,1,845,395) translate(70.775 38.6)"/><path d="M1140 325c0-2.76 2.24-5 5-5h35c22.1 0 40 17.9 40 40s-17.9 40-40 40h-35c-2.76 0-5-2.24-5-5z" stroke="#e8bcab" stroke-width="2" fill="#ffe0d4"/><use xlink:href="#k" transform="matrix(1,0,0,1,1145,325) translate(16.525 27.799999999999997)"/><use xlink:href="#l" transform="matrix(1,0,0,1,1145,325) translate(17.575 49.4)"/><path d="M1140 435c0-2.76 2.24-5 5-5h35c22.1 0 40 17.9 40 40s-17.9 40-40 40h-35c-2.76 0-5-2.24-5-5z" stroke="#e8bcab" stroke-width="2" fill="#ffe0d4"/><use xlink:href="#m" transform="matrix(1,0,0,1,1145,435) translate(5.074999999999999 27.799999999999997)"/><use xlink:href="#l" transform="matrix(1,0,0,1,1145,435) translate(17.575 49.4)"/><path d="M1140 555c0-2.76 2.24-5 5-5h35c22.1 0 40 17.9 40 40s-17.9 40-40 40h-35c-2.76 0-5-2.24-5-5z" stroke="#e8bcab" stroke-width="2" fill="#ffe0d4"/><use xlink:href="#n" transform="matrix(1,0,0,1,1145,555) translate(15.374999999999996 27.799999999999997)"/><use xlink:href="#l" transform="matrix(1,0,0,1,1145,555) translate(17.575 49.4)"/><path d="M1140 675c0-2.76 2.24-5 5-5h35c22.1 0 40 17.9 40 40s-17.9 40-40 40h-35c-2.76 0-5-2.24-5-5z" stroke="#e8bcab" stroke-width="2" fill="#ffe0d4"/><use xlink:href="#o" transform="matrix(1,0,0,1,1145,675) translate(2.0749999999999957 27.799999999999997)"/><use xlink:href="#l" transform="matrix(1,0,0,1,1145,675) translate(17.575 49.4)"/><path d="M840 555c0-2.76 2.24-5 5-5h150c2.76 0 5 2.24 5 5v70c0 2.76-2.24 5-5 5H845c-2.76 0-5-2.24-5-5z" stroke="#ccc" stroke-width="2" fill="#ededed"/><use xlink:href="#i" transform="matrix(1,0,0,1,845,555) translate(22.374999999999993 38.6)"/><use xlink:href="#p" transform="matrix(1,0,0,1,845,555) translate(65.775 38.6)"/><path d="M920 471.5v61.12" stroke="#999" fill="none"/><path d="M920.5 471.5h-1v-.5h1z" fill="#999"/><path d="M920 547.38l-4.64-14.26h9.28z" stroke="#999" fill="#999"/><path d="M1000.36 551.88H1040V360h82.62" stroke="#999" fill="none"/><path d="M1000.37 552.38h-.15l-.73-1h.87z" fill="#999"/><path d="M1137.38 360l-14.26 4.64v-9.28z" stroke="#999" fill="#999"/><path d="M1001.5 571.33h68.5v-102.5h52.62" stroke="#999" fill="none"/><path d="M1001.5 571.83h-.5v-1h.5z" fill="#999"/><path d="M1137.38 468.83l-14.26 4.64v-9.27z" stroke="#999" fill="#999"/><path d="M1001.5 590h121.12" stroke="#999" fill="none"/><path d="M1001.5 590.5h-.5v-1h.5z" fill="#999"/><path d="M1137.38 590l-14.26 4.64v-9.28z" stroke="#999" fill="#999"/><path d="M1001.5 610h68.5v100h52.62" stroke="#999" fill="none"/><path d="M1001.5 610.5h-.5v-1h.5z" fill="#999"/><path d="M1137.38 710l-14.26 4.64v-9.28z" stroke="#999" fill="#999"/><path d="M1140 795c0-2.76 2.24-5 5-5h35c22.1 0 40 17.9 40 40s-17.9 40-40 40h-35c-2.76 0-5-2.24-5-5z" stroke="#e8bcab" stroke-width="2" fill="#ffe0d4"/><use xlink:href="#i" transform="matrix(1,0,0,1,1145,795) translate(1.7999999999999972 27.799999999999997)"/><use xlink:href="#q" transform="matrix(1,0,0,1,1145,795) translate(45.2 27.799999999999997)"/><use xlink:href="#r" transform="matrix(1,0,0,1,1145,795) translate(14.024999999999999 49.4)"/><path d="M998.38 630.17V830h124.24" stroke="#999" fill="none"/><path d="M998.88 630.18h-1v-.14l1-.73z" fill="#999"/><path d="M1137.38 830l-14.26 4.64v-9.28z" stroke="#999" fill="#999"/><path d="M1320 535c0-2.76 2.24-5 5-5h150c2.76 0 5 2.24 5 5v110c0 2.76-2.24 5-5 5h-150c-2.76 0-5-2.24-5-5z" stroke="#ccc" stroke-width="2" fill="#ededed"/><use xlink:href="#i" transform="matrix(1,0,0,1,1325,535) translate(17.39999999999999 58.6)"/><use xlink:href="#s" transform="matrix(1,0,0,1,1325,535) translate(60.8 58.6)"/><path d="M1221.5 590h81.12" stroke="#999" fill="none"/><path d="M1221.5 590.5h-.53l.03-.5-.02-.5h.53z" fill="#999"/><path d="M1317.38 590l-14.26 4.64v-9.28z" stroke="#999" fill="#999"/><path d="M1221.5 470h135.17v42.62" stroke="#999" fill="none"/><path d="M1221.5 470.5h-.53l.03-.5-.02-.5h.53z" fill="#999"/><path d="M1356.67 527.38l-4.64-14.26h9.27z" stroke="#999" fill="#999"/><path d="M1221.5 710h135.17v-42.62" stroke="#999" fill="none"/><path d="M1221.5 710.5h-.53l.03-.5-.02-.5h.53z" fill="#999"/><path d="M1356.67 652.62l4.63 14.26h-9.27z" stroke="#999" fill="#999"/><path d="M1221.5 360H1400v152.62" stroke="#999" fill="none"/><path d="M1221.5 360.5h-.53l.03-.5-.02-.5h.53z" fill="#999"/><path d="M1400 527.38l-4.64-14.26h9.28z" stroke="#999" fill="#999"/><path d="M1221.5 830h179.25V667.38" stroke="#999" fill="none"/><path d="M1221.5 830.5h-.53l.03-.5-.02-.5h.53z" fill="#999"/><path d="M1400.75 652.62l4.64 14.26h-9.28z" stroke="#999" fill="#999"/><path d="M1660 638c0 6.63-26.86 12-60 12s-60-5.37-60-12v-96c0-6.63 26.86-12 60-12s60 5.37 60 12z" stroke="#ccc" stroke-width="2" fill="#ededed"/><path d="M1660 542c0 6.63-26.86 12-60 12s-60-5.37-60-12" stroke="#ccc" stroke-width="2" fill="none"/><use xlink:href="#t" transform="matrix(1,0,0,1,1545,559) translate(3.1499999999999915 35.8)"/><use xlink:href="#u" transform="matrix(1,0,0,1,1545,559) translate(32.575 57.4)"/><path d="M1481.5 590h41.12" stroke="#999" fill="none"/><path d="M1481.5 590.5h-.5v-1h.5z" fill="#999"/><path d="M1537.38 590l-14.26 4.64v-9.28z" stroke="#999" fill="#999"/><path d="M920 245.33v127.3" stroke="#999" fill="none"/><path d="M920.5 245.35h-1v-.52h1z" fill="#999"/><path d="M920 387.38l-4.64-14.26h9.28z" stroke="#999" fill="#999"/><path d="M1661.5 590h60.62" stroke="#999" fill="none"/><path d="M1661.5 590.5h-.5v-1h.5z" fill="#999"/><path d="M1736.88 590l-14.26 4.64v-9.28z" stroke="#999" fill="#999"/><path d="M909.2 217.06c-.52-3.1-1.2-5.7-2.2-8.7-.4 1-.84 1.77-1.44 2.6-.88-.88-1.72-1.56-2.8-2.2-6.4-3.9-14.72-1.77-18.56 4.8 2.16.12 3.96.88 5.56 2.3-1.64-1.07-3.32-1.56-5.24-1.56-5.32 0-9.6 4.38-9.6 9.8 0 5.38 4.28 9.77 9.6 9.77h22.08c3.64-.06 6.68-2.33 7.88-5.85 1.48-4.5-.88-9.42-5.28-10.96zm-20.68 13.83c-.4.5-1.12.6-1.6.18-.52-.43-.56-1.16-.16-1.68.4-.5 1.12-.57 1.6-.16.52.4.6 1.14.2 1.65h-.04zm18.4-4.15c-3.36 4.55-10.48 3-15.08 3.25-.56 0-1.04.05-1.6.16 0 0 .28-.14.68-.27 3.24-1.12 4.76-1.36 6.72-2.4 3.64-1.9 7.32-6.08 8.04-10.44-1.4 4.2-5.68 7.74-9.48 9.23-2.56.83-4.8 1.42-7.44 1.94l-.2-.1c-3.2-1.63-3.32-8.78 2.6-11.13 2.6-.97 5.04-.45 7.88-1.16 2.96-.7 6.44-3 7.84-6 1.56 4.84 3.44 12.3.04 16.94z" stroke="#000" stroke-opacity="0" stroke-width="5.36" fill="#68bd45"/><path d="M964.7 218.7l-5.95-10.27c-.64-1-1.63-1.54-2.8-1.63h-11.9c-1.17.1-2.16.63-2.8 1.63l-5.94 10.28c-.5 1.07-.5 2.2 0 3.26l5.95 10.28c.64 1 1.63 1.55 2.8 1.63h11.9c1.17-.08 2.13-.63 2.8-1.63l5.94-10.28c.5-1.06.5-2.2 0-3.25zm-15.97-6.2c-.06-.66.43-1.26 1.12-1.3.66-.1 1.27.42 1.33 1.1V219.82c.03.65-.46 1.25-1.15 1.33-.66.05-1.27-.46-1.3-1.14-.03-.04-.03-.12 0-.18zm1.2 15.6c-4.57 0-8.28-3.7-8.28-8.3 0-2.7 1.17-5 3.34-6.64.45-.4 1.14-.35 1.53.1.4.47.33 1.15-.12 1.56l-.1.08c-.52.38-.88.75-1.25 1.24-2.02 2.7-1.44 6.52 1.24 8.53 2.67 2 6.5 1.43 8.52-1.25 2-2.7 1.45-6.52-1.26-8.52-.45-.4-.5-1.1-.12-1.55.36-.4.96-.48 1.42-.2 3.67 2.75 4.46 7.94 1.7 11.62-1.58 2.17-3.9 3.33-6.62 3.36z" stroke="#000" stroke-opacity="0" stroke-width="4.82" fill="#68bd45"/><path d="M1809.2 610.26c-.52-3.12-1.2-5.7-2.2-8.7-.4.98-.84 1.77-1.44 2.6-.88-.9-1.72-1.56-2.8-2.2-6.4-3.9-14.72-1.77-18.56 4.8 2.16.1 3.96.87 5.56 2.3-1.64-1.08-3.32-1.56-5.24-1.56-5.32 0-9.6 4.38-9.6 9.8 0 5.38 4.28 9.76 9.6 9.76h22.08c3.64-.05 6.68-2.33 7.88-5.84 1.48-4.5-.88-9.42-5.28-10.96zm-20.68 13.83c-.4.5-1.12.58-1.6.17-.52-.43-.56-1.16-.16-1.67.4-.5 1.12-.57 1.6-.17.52.4.6 1.14.2 1.66h-.04zm18.4-4.16c-3.36 4.55-10.48 3-15.08 3.25-.56 0-1.04.05-1.6.15 0 0 .28-.13.68-.27 3.24-1.1 4.76-1.35 6.72-2.38 3.64-1.92 7.32-6.1 8.04-10.44-1.4 4.2-5.68 7.74-9.48 9.22-2.56.84-4.8 1.44-7.44 1.95l-.2-.1c-3.2-1.63-3.32-8.77 2.6-11.13 2.6-.97 5.04-.46 7.88-1.16 2.96-.7 6.44-3 7.84-6 1.56 4.84 3.44 12.3.04 16.93z" stroke="#000" stroke-opacity="0" stroke-width="5.36" fill="#68bd45"/><path d="M1864.7 611.9l-5.95-10.28c-.64-1-1.63-1.54-2.8-1.62h-11.9c-1.17.08-2.16.62-2.8 1.62l-5.94 10.3c-.5 1.04-.5 2.18 0 3.23l5.95 10.3c.64 1 1.63 1.53 2.8 1.6h11.9c1.17-.07 2.13-.6 2.8-1.6l5.94-10.3c.5-1.05.5-2.2 0-3.24zm-15.97-6.2c-.06-.67.43-1.26 1.12-1.32.66-.08 1.27.44 1.33 1.1V613.04c.03.65-.46 1.24-1.15 1.32-.66.06-1.27-.46-1.3-1.13-.03-.05-.03-.13 0-.18zm1.2 15.6c-4.57 0-8.28-3.7-8.28-8.3 0-2.72 1.17-5.02 3.34-6.64.45-.4 1.14-.35 1.53.1.4.47.33 1.14-.12 1.55l-.1.1c-.52.37-.88.75-1.25 1.24-2.02 2.7-1.44 6.52 1.24 8.52 2.67 2 6.5 1.44 8.52-1.24 2-2.7 1.45-6.53-1.26-8.53-.45-.4-.5-1.1-.12-1.55.36-.4.96-.5 1.42-.2 3.67 2.74 4.46 7.94 1.7 11.62-1.58 2.16-3.9 3.33-6.62 3.35z" stroke="#000" stroke-opacity="0" stroke-width="4.82" fill="#68bd45"/><defs><path d="M52-115c0 93 80 130 150 87l7-35h11l-1 55c-23 7-52 12-83 12C60 4 19-37 15-115c-5-113 97-141 201-114l1 51h-12l-5-30c-15-9-39-16-62-16-66 0-86 41-86 109" id="v"/><path d="M90-170c52 0 76 32 76 87 0 54-24 87-77 87-51 0-75-34-75-87 0-54 24-87 76-87zM89-10c39 0 46-35 46-73 0-39-7-73-46-73-39 1-44 34-44 73s6 72 44 73" id="w"/><path d="M125-118c4-37-41-34-68-26v132l23 4v8H8C5-13 21-9 28-12v-141c-7-3-23 1-20-12h47l2 13c31-23 98-29 98 31v109c7 3 23-1 20 12h-72v-8l22-4v-106" id="x"/><path d="M54-38c-1 25 24 26 44 20v12C71 10 25 9 25-35v-115H4c-2-14 14-10 21-15l18-38h11v38h38v15H54v112" id="y"/><path d="M57-145c16-10 35-24 60-25v45c-19 1-8-30-40-17l-20 6v124l29 4v8H7v-8l21-4v-141c-8-3-24 2-21-12h48" id="z"/><path d="M65-12l28 4v8H7v-8l28-4v-226l-28-4v-8h58v238" id="A"/><path d="M84-170c49 0 66 33 63 87H46c-8 60 38 80 95 63v10C128-2 108 4 88 4 34 4 14-29 14-84c-1-54 22-86 70-86zm33 73c12-57-57-82-69-24-1 7-2 15-2 24h71" id="B"/><g id="a"><use transform="matrix(0.05,0,0,0.05,0,0)" xlink:href="#v"/><use transform="matrix(0.05,0,0,0.05,12,0)" xlink:href="#w"/><use transform="matrix(0.05,0,0,0.05,21,0)" xlink:href="#x"/><use transform="matrix(0.05,0,0,0.05,30,0)" xlink:href="#y"/><use transform="matrix(0.05,0,0,0.05,35,0)" xlink:href="#z"/><use transform="matrix(0.05,0,0,0.05,40.95,0)" xlink:href="#w"/><use transform="matrix(0.05,0,0,0.05,49.95,0)" xlink:href="#A"/><use transform="matrix(0.05,0,0,0.05,54.95,0)" xlink:href="#A"/><use transform="matrix(0.05,0,0,0.05,59.95,0)" xlink:href="#B"/><use transform="matrix(0.05,0,0,0.05,67.9,0)" xlink:href="#z"/></g><path d="M126-118c4-37-42-32-68-25v131l24 4v8H8C5-13 21-9 28-12v-141c-7-3-23 1-20-12h48l1 13c22-15 77-30 92 2 32-22 104-36 104 29v109c8 3 24-2 21 12h-75v-8l25-4v-106c3-39-45-31-72-24 7 37 1 88 3 130l25 4v8h-78v-8l24-4v-106" id="C"/><path d="M126-119c3-38-42-31-69-25v132l23 4v8H7v-8l21-4v-226l-24-4v-8h53l-1 98c31-22 99-31 99 31v109c7 3 23-1 20 12h-71v-8l22-4v-107" id="D"/><path d="M13-81c0-71 46-101 114-85l-1-72-28-4v-8h57v238c8 3 24-2 21 12h-47l-2-12C80 23 13-1 13-81zm77-74c-37 1-44 33-45 74 0 38 9 66 45 66 14 0 27-3 36-7v-130c-10-1-24-3-36-3" id="E"/><g id="b"><use transform="matrix(0.05,0,0,0.05,0,0)" xlink:href="#C"/><use transform="matrix(0.05,0,0,0.05,14,0)" xlink:href="#B"/><use transform="matrix(0.05,0,0,0.05,21.95,0)" xlink:href="#y"/><use transform="matrix(0.05,0,0,0.05,26.950000000000003,0)" xlink:href="#D"/><use transform="matrix(0.05,0,0,0.05,35.95,0)" xlink:href="#w"/><use transform="matrix(0.05,0,0,0.05,44.95,0)" xlink:href="#E"/></g><path d="M178-68c0 79-95 82-154 59v-54h12c1 35 22 52 60 52 50 0 69-58 33-82-39-24-105-21-105-85 0-67 86-66 142-53v49h-12l-6-29c-31-27-121-7-89 42 28 43 119 24 119 101" id="F"/><g id="c"><use transform="matrix(0.05,0,0,0.05,0,0)" xlink:href="#F"/><use transform="matrix(0.05,0,0,0.05,10,0)" xlink:href="#B"/><use transform="matrix(0.05,0,0,0.05,17.95,0)" xlink:href="#x"/><use transform="matrix(0.05,0,0,0.05,26.950000000000003,0)" xlink:href="#E"/></g><path d="M41-130c7 48 86 23 86 84 0 56-69 57-112 41v-40c20 0 9 29 31 31 35 19 77-26 41-50-27-18-72-13-72-59 0-50 58-52 100-41v36c-19 1-8-25-28-25-21-7-50-1-46 23" id="G"/><path d="M166-85c3 67-44 102-111 85l1 64 29 4v9H6v-9l21-4v-217c-7-3-22 1-19-12h46l1 9c11-8 26-14 45-14 47 2 64 36 66 85zM56-13c53 14 83-14 78-72 7-53-33-79-78-60v132" id="H"/><g id="d"><use transform="matrix(0.05,0,0,0.05,0,0)" xlink:href="#z"/><use transform="matrix(0.05,0,0,0.05,5.95,0)" xlink:href="#B"/><use transform="matrix(0.05,0,0,0.05,13.9,0)" xlink:href="#G"/><use transform="matrix(0.05,0,0,0.05,20.9,0)" xlink:href="#H"/><use transform="matrix(0.05,0,0,0.05,29.899999999999995,0)" xlink:href="#w"/><use transform="matrix(0.05,0,0,0.05,38.9,0)" xlink:href="#x"/><use transform="matrix(0.05,0,0,0.05,47.9,0)" xlink:href="#G"/><use transform="matrix(0.05,0,0,0.05,54.900000000000006,0)" xlink:href="#B"/></g><g id="e"><use transform="matrix(0.05,0,0,0.05,0,0)" xlink:href="#y"/><use transform="matrix(0.05,0,0,0.05,5,0)" xlink:href="#w"/></g><path d="M45-84c0 64 52 80 104 63 1 25-30 25-55 25-56 0-80-32-80-88 0-76 62-98 131-80v46h-10c-5-15-4-31-23-35-47-10-67 21-67 69" id="I"/><path d="M47-200c-23 0-25-39 0-38 13 0 18 7 20 19-1 11-8 19-20 19zM65-12l28 4v8H8v-8l28-4v-141l-24-4v-8h53v153" id="J"/><g id="f"><use transform="matrix(0.05,0,0,0.05,0,0)" xlink:href="#I"/><use transform="matrix(0.05,0,0,0.05,7.95,0)" xlink:href="#A"/><use transform="matrix(0.05,0,0,0.05,12.949999999999998,0)" xlink:href="#J"/><use transform="matrix(0.05,0,0,0.05,17.95,0)" xlink:href="#B"/><use transform="matrix(0.05,0,0,0.05,25.899999999999995,0)" xlink:href="#x"/><use transform="matrix(0.05,0,0,0.05,34.9,0)" xlink:href="#y"/></g><path d="M108-218l-30-5 3-13h108l-2 13-27 5C136-123 156 22 19 2 11 1 4 0-1-2L9-55h14C12-15 56-1 73-34c16-57 22-124 35-184" id="K"/><path d="M98-104L82-18l39 5-2 13H0l2-13 29-5 35-200-29-5 2-13h195l-11 64h-17l2-42-90-2-17 93h64l11-30h15l-14 79h-15v-30H98" id="L"/><path d="M82-18l29 5-2 13H-4l3-13 31-5 35-200-29-5 2-13h112l-2 13-31 5" id="M"/><path d="M58-16l21 4-2 12H8l41-234-16-4 2-12h64" id="N"/><path d="M62-57c-4 16-6 39 13 38 8 0 13-3 20-4l4 12C72 11 3 12 13-44l18-103H11l2-11 25-7 24-38h26l-7 38h28l-3 18H78" id="O"/><path d="M8-58c3-72 59-136 130-101 9 5 14 13 14 25 0 48-53 54-95 64-3 26 4 52 31 52 20 0 33-9 45-17l8 11C108 13 5 18 8-58zm101-78c-5-28-28-9-35 5-6 12-12 25-14 42 27-4 47-18 49-47" id="P"/><path d="M77-130c13-23 31-45 66-38l-10 59h-10l-8-24c-22 1-32 14-42 28L55 0H7l27-149-21-5 2-11h66" id="Q"/><g id="h"><use transform="matrix(0.07407407407407408,0,0,0.07407407407407408,0,0)" xlink:href="#K"/><use transform="matrix(0.07407407407407408,0,0,0.07407407407407408,13.333333333333336,0)" xlink:href="#L"/><use transform="matrix(0.07407407407407408,0,0,0.07407407407407408,31.111111111111114,0)" xlink:href="#M"/><use transform="matrix(0.07407407407407408,0,0,0.07407407407407408,41.48148148148149,0)" xlink:href="#N"/><use transform="matrix(0.07407407407407408,0,0,0.07407407407407408,48.88888888888891,0)" xlink:href="#O"/><use transform="matrix(0.07407407407407408,0,0,0.07407407407407408,56.296296296296305,0)" xlink:href="#P"/><use transform="matrix(0.07407407407407408,0,0,0.07407407407407408,68.07407407407408,0)" xlink:href="#Q"/></g><path d="M75-106v92l39 5v9H13v-9l28-5v-208l-31-4v-10h177v57h-11l-6-38c-28-4-63-3-95-3v98h69l5-28h11v73h-11l-5-29H75" id="R"/><g id="i"><use transform="matrix(0.05,0,0,0.05,0,0)" xlink:href="#R"/><use transform="matrix(0.05,0,0,0.05,10,0)" xlink:href="#J"/><use transform="matrix(0.05,0,0,0.05,15,0)" xlink:href="#A"/><use transform="matrix(0.05,0,0,0.05,20,0)" xlink:href="#y"/><use transform="matrix(0.05,0,0,0.05,25,0)" xlink:href="#B"/><use transform="matrix(0.05,0,0,0.05,32.95,0)" xlink:href="#z"/></g><path d="M81-9v9H4v-9l26-5 81-224h33l83 224 30 5v9h-99v-9l31-5-23-68H73L49-14zm38-203L78-98h82" id="S"/><path d="M164-154L98 4H85L17-153c-7-3-20 0-17-12h77v8l-26 4L99-38l46-115-26-4v-8h61v8" id="T"/><g id="j"><use transform="matrix(0.05,0,0,0.05,0,0)" xlink:href="#S"/><use transform="matrix(0.05,0,0,0.05,12.950000000000001,0)" xlink:href="#E"/><use transform="matrix(0.05,0,0,0.05,21.950000000000003,0)" xlink:href="#T"/><use transform="matrix(0.05,0,0,0.05,30.950000000000003,0)" xlink:href="#J"/><use transform="matrix(0.05,0,0,0.05,35.95,0)" xlink:href="#I"/><use transform="matrix(0.05,0,0,0.05,43.900000000000006,0)" xlink:href="#B"/></g><g id="k"><use transform="matrix(0.05,0,0,0.05,0,0)" xlink:href="#R"/><use transform="matrix(0.05,0,0,0.05,10,0)" xlink:href="#J"/><use transform="matrix(0.05,0,0,0.05,15,0)" xlink:href="#B"/><use transform="matrix(0.05,0,0,0.05,22.95,0)" xlink:href="#A"/><use transform="matrix(0.05,0,0,0.05,27.950000000000003,0)" xlink:href="#E"/></g><path d="M103-236c-39-15-35 32-34 71h44v15H69v136l35 6v8H15v-8l25-6v-136H11v-9l29-7c-6-59 23-100 80-84v36c-15 2-12-14-17-22" id="U"/><g id="l"><use transform="matrix(0.05,0,0,0.05,0,0)" xlink:href="#U"/><use transform="matrix(0.05,0,0,0.05,5.95,0)" xlink:href="#J"/><use transform="matrix(0.05,0,0,0.05,10.95,0)" xlink:href="#A"/><use transform="matrix(0.05,0,0,0.05,15.949999999999998,0)" xlink:href="#y"/><use transform="matrix(0.05,0,0,0.05,20.95,0)" xlink:href="#B"/><use transform="matrix(0.05,0,0,0.05,28.899999999999995,0)" xlink:href="#z"/></g><path d="M32-163c41-10 102-14 102 39v112c8 3 24-2 21 12h-45l-4-17C83 13 3 13 13-46c-2-50 45-50 92-51 4-36-5-70-42-56-6 2-12 4-16 6-4 7 0 23-15 20v-36zM42-47c0 41 41 33 63 22v-59c-34 1-63-1-63 37" id="V"/><path d="M141-152c28 39 5 97-54 97-9 0-20-2-27-3L49-35c29 22 130-14 124 52-4 45-38 57-88 61C21 83-8 26 45-2 33-6 22-15 21-31l28-31c-19-9-28-26-28-51-2-51 53-65 100-52l38-20 7 8zM85 64c35 0 61-11 61-42 0-35-57-17-89-21-9 8-16 19-17 34 0 25 19 29 45 29zM52-113c1 26 7 46 35 44 28-1 34-16 35-44 0-26-6-43-34-43s-36 17-36 43" id="W"/><path d="M161-154L85 37C75 66 49 86 8 75V39c18-2 6 24 29 21 30-4 38-32 47-58L21-153c-7-3-20 0-17-12h77v8l-26 4 45 116 43-116-26-4v-8h62v8" id="X"/><g id="m"><use transform="matrix(0.05,0,0,0.05,0,0)" xlink:href="#F"/><use transform="matrix(0.05,0,0,0.05,10,0)" xlink:href="#y"/><use transform="matrix(0.05,0,0,0.05,15,0)" xlink:href="#z"/><use transform="matrix(0.05,0,0,0.05,20.95,0)" xlink:href="#V"/><use transform="matrix(0.05,0,0,0.05,28.899999999999995,0)" xlink:href="#y"/><use transform="matrix(0.05,0,0,0.05,33.9,0)" xlink:href="#B"/><use transform="matrix(0.05,0,0,0.05,41.85,0)" xlink:href="#W"/><use transform="matrix(0.05,0,0,0.05,50.85,0)" xlink:href="#X"/></g><path d="M56-14l29 5v9H8v-9l26-5 80-107-68-101-27-4v-10h97v10l-30 4 49 73 55-73-29-4v-10h77v10l-26 4-66 88 81 120 26 5v9h-97v-9l30-5-62-91" id="Y"/><path d="M152 0h-7L59-203v189l32 5v9H10v-9l31-5v-208l-31-4v-10h72l76 180 84-180h68v10l-31 4v208l31 5v9h-96v-9l32-5v-189" id="Z"/><path d="M111-226l-36 4v207c33-1 73 2 101-4l11-49h11l-3 68H10v-9l31-5v-208l-31-4v-10h101v10" id="aa"/><g id="n"><use transform="matrix(0.05,0,0,0.05,0,0)" xlink:href="#Y"/><use transform="matrix(0.05,0,0,0.05,12.950000000000001,0)" xlink:href="#Z"/><use transform="matrix(0.05,0,0,0.05,28.950000000000003,0)" xlink:href="#aa"/></g><path d="M75-17c87 13 134-18 134-103 0-78-51-106-134-100v203zm171-102C246 5 139 7 10 0v-9l31-5v-208l-31-4v-10h107c82 0 129 35 129 117" id="ab"/><g id="o"><use transform="matrix(0.05,0,0,0.05,0,0)" xlink:href="#ab"/><use transform="matrix(0.05,0,0,0.05,12.950000000000001,0)" xlink:href="#X"/><use transform="matrix(0.05,0,0,0.05,21.950000000000003,0)" xlink:href="#x"/><use transform="matrix(0.05,0,0,0.05,30.950000000000003,0)" xlink:href="#V"/><use transform="matrix(0.05,0,0,0.05,38.900000000000006,0)" xlink:href="#C"/><use transform="matrix(0.05,0,0,0.05,52.900000000000006,0)" xlink:href="#J"/><use transform="matrix(0.05,0,0,0.05,57.900000000000006,0)" xlink:href="#I"/></g><path d="M75-108c48 3 76-12 76-58s-28-57-76-54v112zm111-58c-1 60-46 78-111 74v78l37 5v9H13v-9l28-5v-208l-31-4v-10c81 1 178-14 176 70" id="ac"/><g id="p"><use transform="matrix(0.05,0,0,0.05,0,0)" xlink:href="#ac"/><use transform="matrix(0.05,0,0,0.05,10,0)" xlink:href="#z"/><use transform="matrix(0.05,0,0,0.05,15.949999999999998,0)" xlink:href="#w"/><use transform="matrix(0.05,0,0,0.05,24.95,0)" xlink:href="#T"/><use transform="matrix(0.05,0,0,0.05,33.95,0)" xlink:href="#J"/><use transform="matrix(0.05,0,0,0.05,38.95,0)" xlink:href="#E"/><use transform="matrix(0.05,0,0,0.05,47.95,0)" xlink:href="#B"/><use transform="matrix(0.05,0,0,0.05,55.900000000000006,0)" xlink:href="#z"/></g><g id="q"><use transform="matrix(0.05,0,0,0.05,0,0)" xlink:href="#x"/><use transform="matrix(0.05,0,0,0.05,9,0)" xlink:href="#w"/><use transform="matrix(0.05,0,0,0.05,18,0)" xlink:href="#y"/></g><path d="M124-13C89 8 26 15 26-45v-108c-8-3-24 2-21-12h50v118c-3 37 42 32 69 25v-131l-25-4v-8h54v153c8 3 24-2 21 12h-48" id="ad"/><g id="r"><use transform="matrix(0.05,0,0,0.05,0,0)" xlink:href="#U"/><use transform="matrix(0.05,0,0,0.05,5.95,0)" xlink:href="#w"/><use transform="matrix(0.05,0,0,0.05,14.949999999999998,0)" xlink:href="#ad"/><use transform="matrix(0.05,0,0,0.05,23.95,0)" xlink:href="#x"/><use transform="matrix(0.05,0,0,0.05,32.95,0)" xlink:href="#E"/></g><g id="s"><use transform="matrix(0.05,0,0,0.05,0,0)" xlink:href="#v"/><use transform="matrix(0.05,0,0,0.05,12,0)" xlink:href="#w"/><use transform="matrix(0.05,0,0,0.05,21,0)" xlink:href="#x"/><use transform="matrix(0.05,0,0,0.05,30,0)" xlink:href="#T"/><use transform="matrix(0.05,0,0,0.05,39,0)" xlink:href="#B"/><use transform="matrix(0.05,0,0,0.05,46.95,0)" xlink:href="#z"/><use transform="matrix(0.05,0,0,0.05,52.900000000000006,0)" xlink:href="#y"/><use transform="matrix(0.05,0,0,0.05,57.900000000000006,0)" xlink:href="#B"/><use transform="matrix(0.05,0,0,0.05,65.85000000000001,0)" xlink:href="#z"/></g><path d="M130-224c-62 0-78 43-78 106 0 64 16 108 78 108s78-45 78-108-16-106-78-106zm0 228C53 4 15-39 15-118c-1-80 37-120 115-120s115 42 115 120C245-39 207 4 130 4" id="ae"/><path d="M53-14c58 12 82-15 82-73 0-52-35-77-82-58v131zM89 4C64 4 42-2 24-9v-229l-24-4v-8h53l-1 94c48-33 114-4 114 69 0 57-23 91-77 91" id="af"/><path d="M50-238c28 0 22 38 0 38-10-2-19-7-19-19s7-18 19-19zM3 58c24 15 35-10 35-42v-169l-25-4v-8h54V7c4 51-28 81-77 66V38C3 36-1 51 3 58" id="ag"/><g id="t"><use transform="matrix(0.05,0,0,0.05,0,0)" xlink:href="#ae"/><use transform="matrix(0.05,0,0,0.05,12.950000000000001,0)" xlink:href="#af"/><use transform="matrix(0.05,0,0,0.05,21.950000000000003,0)" xlink:href="#ag"/><use transform="matrix(0.05,0,0,0.05,26.950000000000003,0)" xlink:href="#B"/><use transform="matrix(0.05,0,0,0.05,34.900000000000006,0)" xlink:href="#I"/><use transform="matrix(0.05,0,0,0.05,42.85000000000001,0)" xlink:href="#y"/><use transform="matrix(0.05,0,0,0.05,47.85000000000001,0)" xlink:href="#Z"/><use transform="matrix(0.05,0,0,0.05,63.85,0)" xlink:href="#V"/><use transform="matrix(0.05,0,0,0.05,71.80000000000001,0)" xlink:href="#H"/><use transform="matrix(0.05,0,0,0.05,80.80000000000001,0)" xlink:href="#H"/><use transform="matrix(0.05,0,0,0.05,89.80000000000001,0)" xlink:href="#B"/><use transform="matrix(0.05,0,0,0.05,97.75000000000001,0)" xlink:href="#z"/></g><g id="u"><use transform="matrix(0.05,0,0,0.05,0,0)" xlink:href="#v"/><use transform="matrix(0.05,0,0,0.05,12,0)" xlink:href="#V"/><use transform="matrix(0.05,0,0,0.05,19.95,0)" xlink:href="#I"/><use transform="matrix(0.05,0,0,0.05,27.899999999999995,0)" xlink:href="#D"/><use transform="matrix(0.05,0,0,0.05,36.9,0)" xlink:href="#B"/></g></defs></g></svg>