<svg xmlns="http://www.w3.org/2000/svg" xmlns:xlink="http://www.w3.org/1999/xlink" xmlns:lucid="lucid" width="1162" height="880"><g transform="translate(-78 -40)" lucid:page-tab-id="0_0"><path d="M100 90c0-16.57 13.43-30 30-30h1060c16.57 0 30 13.43 30 30v780c0 16.57-13.43 30-30 30H130c-16.57 0-30-13.43-30-30z" fill-opacity="0"/><path d="M115.04 64.1l3.17-1.7 4.72-1.56 4.93-.76L130 60h14.72m14.72 0h29.45m14.7 0h29.46m14.72 0h29.44m14.72 0h29.45m14.7 0h29.46m14.72 0h29.44m14.72 0h29.45m14.7 0h29.46m14.72 0h29.44m14.72 0h29.45m14.7 0h29.46m14.72 0h29.44m14.72 0h29.45m14.7 0h29.46m14.72 0h29.44m14.72 0h29.45m14.7 0h29.46m14.72 0h29.44m14.72 0h29.45m14.7 0h29.46m14.72 0h29.44m14.72 0h29.45m14.7 0h29.46m14.72 0H1190l5 .42 4.82 1.22 4.54 2 .6.42m10.95 10.98l1.7 3.17 1.56 4.72.76 4.93.08 2.15v15.3m0 15.3v30.58m0 15.3v30.58m0 15.3v30.58m0 15.3v30.58m0 15.3v30.6m0 15.28v30.6m0 15.28v30.6m0 15.28v30.6m0 15.3v30.58m0 15.3v30.58m0 15.3V610m0 15.3v30.58m0 15.3v30.58m0 15.3v30.6m0 15.28v30.6m0 15.28v30.6m0 15.3V870l-.42 5-1.22 4.82-2 4.54-.42.6m-10.98 10.95l-3.17 1.7-4.72 1.56-4.93.76-2.15.08h-14.72m-14.72 0h-29.45m-14.7 0h-29.46m-14.72 0h-29.44m-14.72 0H998.6m-14.7 0h-29.46m-14.72 0h-29.44m-14.72 0H866.1m-14.7 0h-29.46m-14.72 0h-29.44m-14.72 0H733.6m-14.7 0h-29.46m-14.72 0h-29.44m-14.72 0H601.1m-14.7 0h-29.46m-14.72 0h-29.44m-14.72 0H468.6m-14.7 0h-29.46m-14.72 0h-29.44m-14.72 0H336.1m-14.7 0h-29.46m-14.72 0h-29.44m-14.72 0H203.6m-14.7 0h-29.46m-14.72 0H130l-5-.42-4.82-1.22-4.54-2-.6-.42m-10.95-10.98l-1.7-3.17-1.56-4.72-.76-4.93L100 870v-15.3m0-15.3v-30.58m0-15.3v-30.58m0-15.3v-30.58m0-15.3v-30.58m0-15.3v-30.6m0-15.28v-30.6m0-15.28v-30.6m0-15.28v-30.6m0-15.3v-30.58m0-15.3V395.9m0-15.3V350m0-15.3v-30.58m0-15.3v-30.58m0-15.3v-30.6m0-15.28v-30.6m0-15.28v-30.6m0-15.3V90l.42-5 1.22-4.82 2-4.54.42-.6" stroke="#c7e8ac" stroke-width="3" fill="none"/><use xlink:href="#a" transform="matrix(1,0,0,1,100,870) translate(0 12.799999999999999)"/><use xlink:href="#b" transform="matrix(1,0,0,1,100,870) translate(22.5 12.799999999999999)"/><use xlink:href="#c" transform="matrix(1,0,0,1,100,870) translate(169.95 12.799999999999999)"/><use xlink:href="#d" transform="matrix(1,0,0,1,100,870) translate(214.45 12.799999999999999)"/><path d="M140 80h160v80H140z" fill="#c7e8ac"/><path d="M147 80h6m4 0h6m4 0h6m4 0h6m4 0h6m4 0h6m4 0h6m4 0h6m4 0h6m4 0h6m4 0h6m4 0h6m4 0h6m4 0h6m4 0h6m4 0h3v3m0 4v6m0 4v6m0 4v6m0 4v6m0 4v6m0 4v6m0 4v6m0 4v3h-3m-4 0h-6m-4 0h-6m-4 0h-6m-4 0h-6m-4 0h-6m-4 0h-6m-4 0h-6m-4 0h-6m-4 0h-6m-4 0h-6m-4 0h-6m-4 0h-6m-4 0h-6m-4 0h-6m-4 0h-6m-4 0h-3v-3m0-4v-6m0-4v-6m0-4v-6m0-4v-6m0-4v-6m0-4v-6m0-4v-6m0-4v-3h3" stroke="#000" stroke-width="2" fill="none"/><use xlink:href="#e" transform="matrix(1,0,0,1,145,85) translate(34.275 27.799999999999997)"/><use xlink:href="#f" transform="matrix(1,0,0,1,145,85) translate(86.775 27.799999999999997)"/><use xlink:href="#g" transform="matrix(1,0,0,1,145,85) translate(10.674999999999997 49.4)"/><use xlink:href="#h" transform="matrix(1,0,0,1,145,85) translate(86.425 49.4)"/><path d="M1040 450h160v120h-160z" fill="#c7e8ac"/><path d="M1047 450h6m4 0h6m4 0h6m4 0h6m4 0h6m4 0h6m4 0h6m4 0h6m4 0h6m4 0h6m4 0h6m4 0h6m4 0h6m4 0h6m4 0h6m4 0h3v3m0 4v6m0 4v6m0 4v6m0 4v6m0 4v6m0 4v6m0 4v6m0 4v6m0 4v6m0 4v6m0 4v6m0 4v3h-3m-4 0h-6m-4 0h-6m-4 0h-6m-4 0h-6m-4 0h-6m-4 0h-6m-4 0h-6m-4 0h-6m-4 0h-6m-4 0h-6m-4 0h-6m-4 0h-6m-4 0h-6m-4 0h-6m-4 0h-6m-4 0h-3v-3m0-4v-6m0-4v-6m0-4v-6m0-4v-6m0-4v-6m0-4v-6m0-4v-6m0-4v-6m0-4v-6m0-4v-6m0-4v-6m0-4v-3h3" stroke="#000" stroke-width="2" fill="none"/><use xlink:href="#i" transform="matrix(1,0,0,1,1045,455) translate(14.399999999999999 47.8)"/><use xlink:href="#j" transform="matrix(1,0,0,1,1045,455) translate(53.85 47.8)"/><use xlink:href="#k" transform="matrix(1,0,0,1,1045,455) translate(121.6 47.8)"/><use xlink:href="#l" transform="matrix(1,0,0,1,1045,455) translate(55.05 69.4)"/><path d="M120 250c0-16.57 13.43-30 30-30h800c16.57 0 30 13.43 30 30v520c0 16.57-13.43 30-30 30H150c-16.57 0-30-13.43-30-30z" fill-opacity="0"/><path d="M135.04 224.1l3.17-1.7 4.72-1.56 4.93-.76L150 220h14.8m14.83 0h29.63m14.8 0h29.64m14.82 0h29.63m14.8 0h29.64m14.8 0h29.64m14.8 0h29.64m14.82 0h29.63m14.8 0h29.64m14.82 0h29.6m14.83 0h29.63m14.8 0h29.64m14.82 0h29.63m14.8 0h29.64m14.8 0h29.64m14.8 0h29.64m14.82 0h29.63m14.8 0h29.64m14.82 0H950l5 .42 4.82 1.22 4.54 2 .6.42m10.95 10.98l1.7 3.17 1.56 4.72.76 4.93.08 2.15v14.44m0 14.45v28.88m0 14.44v28.9m0 14.44v28.88m0 14.45v28.88m0 14.44v28.9m0 14.44v28.88m0 14.45v28.88m0 14.44v28.9m0 14.44v28.88m0 14.45v28.88m0 14.44v28.9m0 14.44V770l-.42 5-1.22 4.82-2 4.54-.42.6m-10.98 10.95l-3.17 1.7-4.72 1.56-4.93.76-2.15.08h-14.8m-14.83 0h-29.63m-14.8 0H846.3m-14.82 0h-29.63m-14.8 0H757.4m-14.8 0h-29.64m-14.8 0H668.5m-14.82 0h-29.63m-14.8 0h-29.64m-14.82 0h-29.6m-14.83 0h-29.63m-14.8 0H446.3m-14.82 0h-29.63m-14.8 0H357.4m-14.8 0h-29.64m-14.8 0H268.5m-14.82 0h-29.63m-14.8 0h-29.64m-14.82 0H150l-5-.42-4.82-1.22-4.54-2-.6-.42m-10.95-10.98l-1.7-3.17-1.56-4.72-.76-4.93L120 770v-14.44m0-14.45v-28.88m0-14.44v-28.9m0-14.44v-28.88m0-14.45v-28.88m0-14.44v-28.9m0-14.44v-28.88m0-14.45v-28.88m0-14.44v-28.9m0-14.44v-28.88m0-14.45v-28.88m0-14.44v-28.9m0-14.44V250l.42-5 1.22-4.82 2-4.54.42-.6" stroke="#c1e4f7" stroke-width="3" fill="none"/><use xlink:href="#m" transform="matrix(1,0,0,1,120,770) translate(0 12.799999999999999)"/><use xlink:href="#n" transform="matrix(1,0,0,1,120,770) translate(13.5 12.799999999999999)"/><use xlink:href="#o" transform="matrix(1,0,0,1,120,770) translate(70.95 12.799999999999999)"/><path d="M140 310h160v80H140z" stroke="#000" stroke-width="2" fill="#c1e4f7"/><use xlink:href="#p" transform="matrix(1,0,0,1,145,315) translate(27.374999999999993 38.6)"/><use xlink:href="#q" transform="matrix(1,0,0,1,145,315) translate(70.775 38.6)"/><path d="M440 230h40c22.1 0 40 17.9 40 40s-17.9 40-40 40h-40z" stroke="#000" stroke-width="2" fill="#c7e8ac"/><use xlink:href="#r" transform="matrix(1,0,0,1,445,235) translate(16.525 27.799999999999997)"/><use xlink:href="#s" transform="matrix(1,0,0,1,445,235) translate(17.575 49.4)"/><path d="M440 350h40c22.1 0 40 17.9 40 40s-17.9 40-40 40h-40z" stroke="#000" stroke-width="2" fill="#c7e8ac"/><use xlink:href="#t" transform="matrix(1,0,0,1,445,355) translate(5.074999999999999 27.799999999999997)"/><use xlink:href="#s" transform="matrix(1,0,0,1,445,355) translate(17.575 49.4)"/><path d="M440 470h40c22.1 0 40 17.9 40 40s-17.9 40-40 40h-40z" stroke="#000" stroke-width="2" fill="#c7e8ac"/><use xlink:href="#u" transform="matrix(1,0,0,1,445,475) translate(15.374999999999996 27.799999999999997)"/><use xlink:href="#s" transform="matrix(1,0,0,1,445,475) translate(17.575 49.4)"/><path d="M440 590h40c22.1 0 40 17.9 40 40s-17.9 40-40 40h-40z" stroke="#000" stroke-width="2" fill="#c7e8ac"/><use xlink:href="#v" transform="matrix(1,0,0,1,445,595) translate(2.0749999999999957 27.799999999999997)"/><use xlink:href="#s" transform="matrix(1,0,0,1,445,595) translate(17.575 49.4)"/><path d="M140 470h160v80H140z" stroke="#000" stroke-width="2" fill="#ffdba9"/><use xlink:href="#p" transform="matrix(1,0,0,1,145,475) translate(22.374999999999993 38.6)"/><use xlink:href="#w" transform="matrix(1,0,0,1,145,475) translate(65.775 38.6)"/><path d="M220 392v58.5" stroke="#000" stroke-width="2" fill="none"/><path d="M221 392.03h-2V391h2z"/><path d="M220 465.76l-4.64-14.26h9.28z" stroke="#000" stroke-width="2"/><path d="M302 471.33h38V270h80.5" stroke="#000" stroke-width="2" fill="none"/><path d="M302.03 472.33H301v-2h1.03z"/><path d="M435.76 270l-14.26 4.64v-9.28z" stroke="#000" stroke-width="2"/><path d="M302 491.33h68v-102.5h50.5" stroke="#000" stroke-width="2" fill="none"/><path d="M302.03 492.33H301v-2h1.03z"/><path d="M435.76 388.83l-14.26 4.64v-9.27z" stroke="#000" stroke-width="2"/><path d="M302 510h118.5" stroke="#000" stroke-width="2" fill="none"/><path d="M302.03 511H301v-2h1.03z"/><path d="M435.76 510l-14.26 4.64v-9.28z" stroke="#000" stroke-width="2"/><path d="M302 530h68v100h50.5" stroke="#000" stroke-width="2" fill="none"/><path d="M302.03 531H301v-2h1.03z"/><path d="M435.76 630l-14.26 4.64v-9.28z" stroke="#000" stroke-width="2"/><path d="M440 710h40c22.1 0 40 17.9 40 40s-17.9 40-40 40h-40z" stroke="#000" stroke-width="2" fill="#ffbbb1"/><use xlink:href="#p" transform="matrix(1,0,0,1,445,715) translate(1.7999999999999972 27.799999999999997)"/><use xlink:href="#x" transform="matrix(1,0,0,1,445,715) translate(45.2 27.799999999999997)"/><use xlink:href="#y" transform="matrix(1,0,0,1,445,715) translate(14.024999999999999 49.4)"/><path d="M302 551h38v199h80.5" stroke="#000" stroke-width="2" fill="none"/><path d="M302.03 552H298v-1h3v-1h1.03z"/><path d="M435.76 750l-14.26 4.64v-9.28z" stroke="#000" stroke-width="2"/><path d="M620 450h160v120H620z" stroke="#000" stroke-width="2" fill="#c1e4f7"/><use xlink:href="#p" transform="matrix(1,0,0,1,625,455) translate(17.39999999999999 58.6)"/><use xlink:href="#z" transform="matrix(1,0,0,1,625,455) translate(60.8 58.6)"/><path d="M522 510h78.5" stroke="#000" stroke-width="2" fill="none"/><path d="M522.03 511h-1.1l.07-1-.03-1h1.06z"/><path d="M615.76 510l-14.26 4.64v-9.28z" stroke="#000" stroke-width="2"/><path d="M522 390h134.67v40.5" stroke="#000" stroke-width="2" fill="none"/><path d="M522.03 391h-1.1l.07-1-.03-1h1.06z"/><path d="M656.67 445.76l-4.64-14.26h9.27z" stroke="#000" stroke-width="2"/><path d="M522 630h134.67v-40.5" stroke="#000" stroke-width="2" fill="none"/><path d="M522.03 631h-1.1l.07-1-.03-1h1.06z"/><path d="M656.67 574.24l4.63 14.26h-9.27z" stroke="#000" stroke-width="2"/><path d="M522 270h178v160.5" stroke="#000" stroke-width="2" fill="none"/><path d="M522.03 271h-1.1l.07-1-.03-1h1.06z"/><path d="M700 445.76l-4.64-14.26h9.28z" stroke="#000" stroke-width="2"/><path d="M522 750h178.75V589.5" stroke="#000" stroke-width="2" fill="none"/><path d="M522.03 751h-1.1l.07-1-.03-1h1.06z"/><path d="M700.75 574.24l4.64 14.26h-9.28z" stroke="#000" stroke-width="2"/><path d="M960 558c0 6.63-26.86 12-60 12s-60-5.37-60-12v-96c0-6.63 26.86-12 60-12s60 5.37 60 12z" stroke="#000" stroke-width="2" fill="#ffdba9"/><path d="M960 462c0 6.63-26.86 12-60 12s-60-5.37-60-12" stroke="#000" stroke-width="2" fill="none"/><g><use xlink:href="#A" transform="matrix(1,0,0,1,845,479) translate(26.55 25)"/><use xlink:href="#B" transform="matrix(1,0,0,1,845,479) translate(20.65 46.6)"/><use xlink:href="#C" transform="matrix(1,0,0,1,845,479) translate(32.575 68.2)"/></g><path d="M782 510h38.5" stroke="#000" stroke-width="2" fill="none"/><path d="M782.03 511H781v-2h1.03z"/><path d="M835.76 510l-14.26 4.64v-9.28z" stroke="#000" stroke-width="2"/><path d="M220 162v128.5" stroke="#000" stroke-width="2" fill="none"/><path d="M221 162.03h-2V161h2z"/><path d="M220 305.76l-4.64-14.26h9.28z" stroke="#000" stroke-width="2"/><path d="M962 510h58.5" stroke="#000" stroke-width="2" fill="none"/><path d="M962.03 511H961v-2h1.03z"/><path d="M1035.76 510l-14.26 4.64v-9.28z" stroke="#000" stroke-width="2"/><defs><path d="M128-140c85 34 48 161-52 144C49 5 24-2 7-9l11-63h15v38c24 36 125 19 95-37-22-41-94-36-94-101 0-71 88-73 151-59l-10 56h-15l-2-34c-26-23-99-7-75 36 9 16 30 23 45 33" id="D"/><path d="M124-170c31 0 45 25 45 59C170-40 123 20 52-2l-9 63 28 4-2 12h-95l2-12 19-4 37-211-17-5 2-10h61l-1 24c11-15 25-29 47-29zM57-22c45 27 66-36 66-81 0-26-13-53-34-33-5 4-10 9-15 16" id="E"/><path d="M77-130c13-23 31-45 66-38l-10 59h-10l-8-24c-22 1-32 14-42 28L55 0H7l27-149-21-5 2-11h66" id="F"/><path d="M59-16l21 4-2 12H9l27-149-16-5 1-11h65zm39-207c0 38-54 32-54 0 0-16 10-27 28-27 17 0 26 11 26 27" id="G"/><path d="M144-170c70 0 21 104 18 154l21 4-3 12h-68l22-127c-7-34-45-7-53 8C63-87 64-39 54 0H7l26-149-15-5 2-11h59l-2 31c16-20 34-36 67-36" id="H"/><path d="M121-148c-51-19-69 39-70 86-1 25 13 50 35 33 6-4 11-10 16-17zM51 4C19 4 6-21 5-55c-2-93 70-133 166-107-15 66-20 142-42 201C113 80 34 87-7 64l4-44H7c2 25 18 37 45 37 45 1 37-49 49-82C89-12 75 4 51 4" id="I"/><path d="M3 4h-25l125-241h25" id="J"/><path d="M8-69l5-31h94l-6 31H8" id="K"/><path d="M54-22c43 30 69-33 69-81 0-34-25-52-44-25-18 25-15 72-25 106zm115-89C172-18 95 27 5-8l40-226-17-4 2-12h65L74-140c11-15 26-30 49-30 33 0 45 24 46 59" id="L"/><path d="M75-14c36-8 43-53 45-96 1-23-4-40-22-42-35 9-46 53-46 96 0 21 6 40 23 42zm93-86C168-39 132 4 71 4 29 4 6-22 6-66c0-62 36-104 96-104 43 0 66 27 66 70" id="M"/><path d="M62-57c-4 16-6 39 13 38 8 0 13-3 20-4l4 12C72 11 3 12 13-44l18-103H11l2-11 25-7 24-38h26l-7 38h28l-3 18H78" id="N"/><g id="b"><use transform="matrix(0.05,0,0,0.05,0,0)" xlink:href="#D"/><use transform="matrix(0.05,0,0,0.05,10,0)" xlink:href="#E"/><use transform="matrix(0.05,0,0,0.05,19,0)" xlink:href="#F"/><use transform="matrix(0.05,0,0,0.05,26,0)" xlink:href="#G"/><use transform="matrix(0.05,0,0,0.05,31,0)" xlink:href="#H"/><use transform="matrix(0.05,0,0,0.05,41,0)" xlink:href="#I"/><use transform="matrix(0.05,0,0,0.05,50,0)" xlink:href="#J"/><use transform="matrix(0.05,0,0,0.05,55,0)" xlink:href="#D"/><use transform="matrix(0.05,0,0,0.05,65,0)" xlink:href="#E"/><use transform="matrix(0.05,0,0,0.05,74,0)" xlink:href="#F"/><use transform="matrix(0.05,0,0,0.05,81,0)" xlink:href="#G"/><use transform="matrix(0.05,0,0,0.05,86,0)" xlink:href="#H"/><use transform="matrix(0.05,0,0,0.05,96,0)" xlink:href="#I"/><use transform="matrix(0.05,0,0,0.05,105,0)" xlink:href="#K"/><use transform="matrix(0.05,0,0,0.05,110.95,0)" xlink:href="#L"/><use transform="matrix(0.05,0,0,0.05,119.95,0)" xlink:href="#M"/><use transform="matrix(0.05,0,0,0.05,128.95,0)" xlink:href="#M"/><use transform="matrix(0.05,0,0,0.05,137.95,0)" xlink:href="#N"/></g><path d="M130 0h-8L83-204 50-18l31 5-2 13H-5l2-13 31-5 36-200-30-5 3-13h86l29 154 84-154h94l-2 13-31 5-36 200 30 5-2 13H173l2-13 35-5 32-186" id="O"/><path d="M265-236l-3 13-23 5L112 5H92L40-218l-19-5 2-13h96l-2 13-25 5 35 154 86-154-23-5 2-13h73" id="P"/><path d="M67-92c-6 74 69 96 125 60l13-39h15l-11 60C128 16 12 10 12-93c0-122 110-166 231-136l-9 59h-15v-34c-11-9-30-16-51-16-69 4-96 57-101 128" id="Q"/><g id="c"><use transform="matrix(0.05,0,0,0.05,0,0)" xlink:href="#O"/><use transform="matrix(0.05,0,0,0.05,16,0)" xlink:href="#P"/><use transform="matrix(0.05,0,0,0.05,28,0)" xlink:href="#Q"/></g><path d="M135-24C103 15 5 16 5-58c0-84 66-131 150-104l-9 51h-13c0-23-2-44-28-41-39 5-49 47-53 92-4 49 52 49 76 25" id="R"/><path d="M58-16l21 4-2 12H8l41-234-16-4 2-12h64" id="S"/><path d="M8-58c3-72 59-136 130-101 9 5 14 13 14 25 0 48-53 54-95 64-3 26 4 52 31 52 20 0 33-9 45-17l8 11C108 13 5 18 8-58zm101-78c-5-28-28-9-35 5-6 12-12 25-14 42 27-4 47-18 49-47" id="T"/><g id="d"><use transform="matrix(0.05,0,0,0.05,0,0)" xlink:href="#R"/><use transform="matrix(0.05,0,0,0.05,7.95,0)" xlink:href="#M"/><use transform="matrix(0.05,0,0,0.05,16.95,0)" xlink:href="#H"/><use transform="matrix(0.05,0,0,0.05,26.950000000000003,0)" xlink:href="#N"/><use transform="matrix(0.05,0,0,0.05,31.950000000000003,0)" xlink:href="#F"/><use transform="matrix(0.05,0,0,0.05,38.95,0)" xlink:href="#M"/><use transform="matrix(0.05,0,0,0.05,47.95,0)" xlink:href="#S"/><use transform="matrix(0.05,0,0,0.05,52.95,0)" xlink:href="#S"/><use transform="matrix(0.05,0,0,0.05,57.95,0)" xlink:href="#T"/><use transform="matrix(0.05,0,0,0.05,65.9,0)" xlink:href="#F"/></g><path d="M165-71C165 10 60 18 4-13l9-52h12v33C53 9 163-15 130-79c-21-40-93-34-95-95-2-67 80-72 139-58l-8 49h-12c-1-18 3-37-16-37-34-11-77 3-72 40 8 57 99 40 99 109" id="U"/><path d="M169-111C169-36 120 15 41 0L31 64l28 4-2 9h-78l1-9 22-4 38-217c-7-3-22 0-17-12h47l-3 26c16-16 31-31 55-31 33 0 47 25 47 59zm-31 5c0-52-55-47-74-17L45-19c54 29 93-31 93-87" id="V"/><path d="M65-128c17-22 38-47 76-40l-8 43c-13 1-9-15-14-22-28 2-42 22-56 39L44 0H15l26-153-20-4 1-8h49" id="W"/><path d="M51-12l28 4-1 8H20l27-153-23-4 2-8h52zm19-226c28 0 22 38 0 38-10-2-19-7-19-19s7-18 19-19" id="X"/><path d="M65-132c14-36 103-60 96 5-4 40-13 77-19 115l23 4-1 8h-53l22-131c-12-41-64 1-72 20L42 0H13l27-153c-7-4-24 0-20-12h49" id="Y"/><path d="M44-60c0 54 56 47 75 17l19-108c-60-20-94 32-94 91zm86 99C116 81 41 85 0 64l3-40c19 1 8 30 31 32 38 13 71-6 76-43l6-41C103-14 85 4 60 4 28 4 12-20 12-55c1-85 67-133 157-107-14 66-20 141-39 201" id="Z"/><g id="e"><use transform="matrix(0.05,0,0,0.05,0,0)" xlink:href="#U"/><use transform="matrix(0.05,0,0,0.05,9,0)" xlink:href="#V"/><use transform="matrix(0.05,0,0,0.05,18,0)" xlink:href="#W"/><use transform="matrix(0.05,0,0,0.05,25,0)" xlink:href="#X"/><use transform="matrix(0.05,0,0,0.05,30,0)" xlink:href="#Y"/><use transform="matrix(0.05,0,0,0.05,39,0)" xlink:href="#Z"/></g><path d="M200-165c14 2 41-6 37 11-14 60-54 105-79 158h-11l-22-109L69 4H57L27-153c-7-3-22 0-17-12h43L76-41l54-106h14l21 107c15-34 37-62 45-102 1-12-16-12-10-23" id="aa"/><path d="M43-73c-15 62 59 70 91 41l5 7C122-11 100 4 70 4 31 4 11-19 11-58c0-67 42-123 113-109 16 3 26 15 28 33-8 46-58 56-109 61zm78-61c0-37-45-19-57 1-8 14-15 33-20 49 39-4 77-13 77-50" id="ab"/><path d="M169-111C172-24 90 29 13-11l41-227-24-4 2-8h52L65-138c13-15 31-32 56-32 33 0 47 25 48 59zm-31 5c0-53-56-47-76-17L44-19c52 30 94-31 94-87" id="ac"/><g id="f"><use transform="matrix(0.05,0,0,0.05,0,0)" xlink:href="#aa"/><use transform="matrix(0.05,0,0,0.05,12,0)" xlink:href="#ab"/><use transform="matrix(0.05,0,0,0.05,19.95,0)" xlink:href="#ac"/></g><path d="M78-15c22 0 39-8 53-17l5 7C120-11 99 4 70 4 31 4 12-20 11-58c-2-82 68-132 145-102l-8 46h-10c1-26-4-45-32-42-45 4-64 47-64 96 0 26 8 46 36 45" id="ad"/><path d="M103-156c-44 0-59 47-61 96 0 29 9 49 35 49 45 0 62-48 62-96 0-29-11-49-36-49zm66 56C168-39 135 4 75 4 34 4 10-23 11-66c1-61 34-104 94-104 41 0 65 27 64 70" id="ae"/><path d="M91-12C68 11 9 12 18-40l19-110H16c-1-14 16-10 25-15l24-38h11l-7 38h38l-3 15H67L46-31c-2 21 28 17 41 11" id="af"/><path d="M50-12l28 4-1 8H19l42-238-23-4 2-8h52" id="ag"/><g id="g"><use transform="matrix(0.05,0,0,0.05,0,0)" xlink:href="#ad"/><use transform="matrix(0.05,0,0,0.05,7.95,0)" xlink:href="#ae"/><use transform="matrix(0.05,0,0,0.05,16.95,0)" xlink:href="#Y"/><use transform="matrix(0.05,0,0,0.05,25.950000000000003,0)" xlink:href="#af"/><use transform="matrix(0.05,0,0,0.05,30.950000000000003,0)" xlink:href="#W"/><use transform="matrix(0.05,0,0,0.05,37.3,0)" xlink:href="#ae"/><use transform="matrix(0.05,0,0,0.05,46.3,0)" xlink:href="#ag"/><use transform="matrix(0.05,0,0,0.05,51.29999999999999,0)" xlink:href="#ag"/><use transform="matrix(0.05,0,0,0.05,56.29999999999999,0)" xlink:href="#ab"/><use transform="matrix(0.05,0,0,0.05,64.25,0)" xlink:href="#W"/></g><path d="M121-170c21-1 33 15 32 39 14-18 29-37 57-39 32-2 32 39 27 68l-15 90 23 4-2 8h-53l23-131c-12-37-53-2-60 19-11 34-14 75-22 112h-29l23-131c-12-38-56-2-62 19C52-77 49-37 42 0H13l27-153-21-4 2-8h48l-4 34c13-18 28-38 56-39" id="ah"/><path d="M129-102c7-23 4-59-29-44-16 7-30 21-38 35L42 0H13l42-238-21-4 1-8h51L65-132c14-18 31-37 61-38 37-2 38 36 32 68l-16 90 23 4-1 8h-53" id="ai"/><path d="M11-56c0-73 50-126 127-109l12-73-27-4 1-8h57L139-12l20 4-2 8h-50l5-27C96-11 82 4 58 4 25 4 11-21 11-56zm31-4c0 51 51 49 72 17l20-104c-54-29-92 30-92 87" id="aj"/><g id="h"><use transform="matrix(0.05,0,0,0.05,0,0)" xlink:href="#ah"/><use transform="matrix(0.05,0,0,0.05,12.950000000000001,0)" xlink:href="#ab"/><use transform="matrix(0.05,0,0,0.05,20.900000000000002,0)" xlink:href="#af"/><use transform="matrix(0.05,0,0,0.05,25.900000000000002,0)" xlink:href="#ai"/><use transform="matrix(0.05,0,0,0.05,34.900000000000006,0)" xlink:href="#ae"/><use transform="matrix(0.05,0,0,0.05,43.900000000000006,0)" xlink:href="#aj"/></g><g id="i"><use transform="matrix(0.05,0,0,0.05,0,0)" xlink:href="#U"/><use transform="matrix(0.05,0,0,0.05,9,0)" xlink:href="#ab"/><use transform="matrix(0.05,0,0,0.05,16.95,0)" xlink:href="#Y"/><use transform="matrix(0.05,0,0,0.05,25.950000000000003,0)" xlink:href="#aj"/></g><path d="M51-128c6 41 68 31 71 79C125 10 47 12 4-7l8-40h8c-2 25 10 37 34 37 22-1 41-8 39-32-4-43-70-30-70-79 0-52 62-56 106-42l-6 36h-9c2-21-12-29-31-29-19 1-35 9-32 28" id="ak"/><g id="j"><use transform="matrix(0.05,0,0,0.05,0,0)" xlink:href="#W"/><use transform="matrix(0.05,0,0,0.05,6.35,0)" xlink:href="#ab"/><use transform="matrix(0.05,0,0,0.05,14.3,0)" xlink:href="#ak"/><use transform="matrix(0.05,0,0,0.05,21.3,0)" xlink:href="#V"/><use transform="matrix(0.05,0,0,0.05,30.3,0)" xlink:href="#ae"/><use transform="matrix(0.05,0,0,0.05,39.3,0)" xlink:href="#Y"/><use transform="matrix(0.05,0,0,0.05,48.3,0)" xlink:href="#ak"/><use transform="matrix(0.05,0,0,0.05,55.29999999999999,0)" xlink:href="#ab"/></g><g id="k"><use transform="matrix(0.05,0,0,0.05,0,0)" xlink:href="#af"/><use transform="matrix(0.05,0,0,0.05,5,0)" xlink:href="#ae"/></g><g id="l"><use transform="matrix(0.05,0,0,0.05,0,0)" xlink:href="#ad"/><use transform="matrix(0.05,0,0,0.05,7.95,0)" xlink:href="#ag"/><use transform="matrix(0.05,0,0,0.05,12.949999999999998,0)" xlink:href="#X"/><use transform="matrix(0.05,0,0,0.05,17.95,0)" xlink:href="#ab"/><use transform="matrix(0.05,0,0,0.05,25.899999999999995,0)" xlink:href="#Y"/><use transform="matrix(0.05,0,0,0.05,34.9,0)" xlink:href="#af"/></g><path d="M108-218l-30-5 3-13h108l-2 13-27 5C136-123 156 22 19 2 11 1 4 0-1-2L9-55h14C12-15 56-1 73-34c16-57 22-124 35-184" id="al"/><path d="M98-104L82-18l39 5-2 13H0l2-13 29-5 35-200-29-5 2-13h195l-11 64h-17l2-42-90-2-17 93h64l11-30h15l-14 79h-15v-30H98" id="am"/><path d="M82-18l29 5-2 13H-4l3-13 31-5 35-200-29-5 2-13h112l-2 13-31 5" id="an"/><g id="n"><use transform="matrix(0.05,0,0,0.05,0,0)" xlink:href="#al"/><use transform="matrix(0.05,0,0,0.05,9,0)" xlink:href="#am"/><use transform="matrix(0.05,0,0,0.05,21,0)" xlink:href="#an"/><use transform="matrix(0.05,0,0,0.05,28,0)" xlink:href="#S"/><use transform="matrix(0.05,0,0,0.05,33,0)" xlink:href="#N"/><use transform="matrix(0.05,0,0,0.05,38,0)" xlink:href="#T"/><use transform="matrix(0.05,0,0,0.05,45.95,0)" xlink:href="#F"/></g><path d="M169-135c20-49 103-47 90 26l-17 93 21 4-2 12h-68l21-127c1-27-25-14-34-3-24 31-22 86-33 130h-47l21-127c2-24-26-18-33-5C63-102 65-44 54 0H7l26-149-16-5 3-11h57v29c15-32 90-55 92 1" id="ao"/><path d="M98-25C87-11 72 4 49 4 17 4 5-21 4-54c-1-72 43-130 119-111l11-69-28-4 2-12h76L143-15l17 4-2 11h-58zm20-119c-46-28-68 37-68 82 0 34 24 52 43 25 18-25 15-73 25-107" id="ap"/><path d="M118-31C102 5 2 26 14-39l20-110-21-5 2-11h68L62-38c7 34 44 5 53-9 18-31 17-79 27-118h46L162-16l20 4-3 12h-62" id="aq"/><g id="o"><use transform="matrix(0.05,0,0,0.05,0,0)" xlink:href="#ao"/><use transform="matrix(0.05,0,0,0.05,14,0)" xlink:href="#M"/><use transform="matrix(0.05,0,0,0.05,23,0)" xlink:href="#ap"/><use transform="matrix(0.05,0,0,0.05,32,0)" xlink:href="#aq"/><use transform="matrix(0.05,0,0,0.05,42,0)" xlink:href="#S"/><use transform="matrix(0.05,0,0,0.05,47,0)" xlink:href="#T"/></g><path d="M75-106v92l39 5v9H13v-9l28-5v-208l-31-4v-10h177v57h-11l-6-38c-28-4-63-3-95-3v98h69l5-28h11v73h-11l-5-29H75" id="ar"/><path d="M47-200c-23 0-25-39 0-38 13 0 18 7 20 19-1 11-8 19-20 19zM65-12l28 4v8H8v-8l28-4v-141l-24-4v-8h53v153" id="as"/><path d="M65-12l28 4v8H7v-8l28-4v-226l-28-4v-8h58v238" id="at"/><path d="M54-38c-1 25 24 26 44 20v12C71 10 25 9 25-35v-115H4c-2-14 14-10 21-15l18-38h11v38h38v15H54v112" id="au"/><path d="M84-170c49 0 66 33 63 87H46c-8 60 38 80 95 63v10C128-2 108 4 88 4 34 4 14-29 14-84c-1-54 22-86 70-86zm33 73c12-57-57-82-69-24-1 7-2 15-2 24h71" id="av"/><path d="M57-145c16-10 35-24 60-25v45c-19 1-8-30-40-17l-20 6v124l29 4v8H7v-8l21-4v-141c-8-3-24 2-21-12h48" id="aw"/><g id="p"><use transform="matrix(0.05,0,0,0.05,0,0)" xlink:href="#ar"/><use transform="matrix(0.05,0,0,0.05,10,0)" xlink:href="#as"/><use transform="matrix(0.05,0,0,0.05,15,0)" xlink:href="#at"/><use transform="matrix(0.05,0,0,0.05,20,0)" xlink:href="#au"/><use transform="matrix(0.05,0,0,0.05,25,0)" xlink:href="#av"/><use transform="matrix(0.05,0,0,0.05,32.95,0)" xlink:href="#aw"/></g><path d="M81-9v9H4v-9l26-5 81-224h33l83 224 30 5v9h-99v-9l31-5-23-68H73L49-14zm38-203L78-98h82" id="ax"/><path d="M13-81c0-71 46-101 114-85l-1-72-28-4v-8h57v238c8 3 24-2 21 12h-47l-2-12C80 23 13-1 13-81zm77-74c-37 1-44 33-45 74 0 38 9 66 45 66 14 0 27-3 36-7v-130c-10-1-24-3-36-3" id="ay"/><path d="M164-154L98 4H85L17-153c-7-3-20 0-17-12h77v8l-26 4L99-38l46-115-26-4v-8h61v8" id="az"/><path d="M45-84c0 64 52 80 104 63 1 25-30 25-55 25-56 0-80-32-80-88 0-76 62-98 131-80v46h-10c-5-15-4-31-23-35-47-10-67 21-67 69" id="aA"/><g id="q"><use transform="matrix(0.05,0,0,0.05,0,0)" xlink:href="#ax"/><use transform="matrix(0.05,0,0,0.05,12.950000000000001,0)" xlink:href="#ay"/><use transform="matrix(0.05,0,0,0.05,21.950000000000003,0)" xlink:href="#az"/><use transform="matrix(0.05,0,0,0.05,30.950000000000003,0)" xlink:href="#as"/><use transform="matrix(0.05,0,0,0.05,35.95,0)" xlink:href="#aA"/><use transform="matrix(0.05,0,0,0.05,43.900000000000006,0)" xlink:href="#av"/></g><g id="r"><use transform="matrix(0.05,0,0,0.05,0,0)" xlink:href="#ar"/><use transform="matrix(0.05,0,0,0.05,10,0)" xlink:href="#as"/><use transform="matrix(0.05,0,0,0.05,15,0)" xlink:href="#av"/><use transform="matrix(0.05,0,0,0.05,22.95,0)" xlink:href="#at"/><use transform="matrix(0.05,0,0,0.05,27.950000000000003,0)" xlink:href="#ay"/></g><path d="M103-236c-39-15-35 32-34 71h44v15H69v136l35 6v8H15v-8l25-6v-136H11v-9l29-7c-6-59 23-100 80-84v36c-15 2-12-14-17-22" id="aB"/><g id="s"><use transform="matrix(0.05,0,0,0.05,0,0)" xlink:href="#aB"/><use transform="matrix(0.05,0,0,0.05,5.95,0)" xlink:href="#as"/><use transform="matrix(0.05,0,0,0.05,10.95,0)" xlink:href="#at"/><use transform="matrix(0.05,0,0,0.05,15.949999999999998,0)" xlink:href="#au"/><use transform="matrix(0.05,0,0,0.05,20.95,0)" xlink:href="#av"/><use transform="matrix(0.05,0,0,0.05,28.899999999999995,0)" xlink:href="#aw"/></g><path d="M178-68c0 79-95 82-154 59v-54h12c1 35 22 52 60 52 50 0 69-58 33-82-39-24-105-21-105-85 0-67 86-66 142-53v49h-12l-6-29c-31-27-121-7-89 42 28 43 119 24 119 101" id="aC"/><path d="M32-163c41-10 102-14 102 39v112c8 3 24-2 21 12h-45l-4-17C83 13 3 13 13-46c-2-50 45-50 92-51 4-36-5-70-42-56-6 2-12 4-16 6-4 7 0 23-15 20v-36zM42-47c0 41 41 33 63 22v-59c-34 1-63-1-63 37" id="aD"/><path d="M141-152c28 39 5 97-54 97-9 0-20-2-27-3L49-35c29 22 130-14 124 52-4 45-38 57-88 61C21 83-8 26 45-2 33-6 22-15 21-31l28-31c-19-9-28-26-28-51-2-51 53-65 100-52l38-20 7 8zM85 64c35 0 61-11 61-42 0-35-57-17-89-21-9 8-16 19-17 34 0 25 19 29 45 29zM52-113c1 26 7 46 35 44 28-1 34-16 35-44 0-26-6-43-34-43s-36 17-36 43" id="aE"/><path d="M161-154L85 37C75 66 49 86 8 75V39c18-2 6 24 29 21 30-4 38-32 47-58L21-153c-7-3-20 0-17-12h77v8l-26 4 45 116 43-116-26-4v-8h62v8" id="aF"/><g id="t"><use transform="matrix(0.05,0,0,0.05,0,0)" xlink:href="#aC"/><use transform="matrix(0.05,0,0,0.05,10,0)" xlink:href="#au"/><use transform="matrix(0.05,0,0,0.05,15,0)" xlink:href="#aw"/><use transform="matrix(0.05,0,0,0.05,20.95,0)" xlink:href="#aD"/><use transform="matrix(0.05,0,0,0.05,28.899999999999995,0)" xlink:href="#au"/><use transform="matrix(0.05,0,0,0.05,33.9,0)" xlink:href="#av"/><use transform="matrix(0.05,0,0,0.05,41.85,0)" xlink:href="#aE"/><use transform="matrix(0.05,0,0,0.05,50.85,0)" xlink:href="#aF"/></g><path d="M56-14l29 5v9H8v-9l26-5 80-107-68-101-27-4v-10h97v10l-30 4 49 73 55-73-29-4v-10h77v10l-26 4-66 88 81 120 26 5v9h-97v-9l30-5-62-91" id="aG"/><path d="M152 0h-7L59-203v189l32 5v9H10v-9l31-5v-208l-31-4v-10h72l76 180 84-180h68v10l-31 4v208l31 5v9h-96v-9l32-5v-189" id="aH"/><path d="M111-226l-36 4v207c33-1 73 2 101-4l11-49h11l-3 68H10v-9l31-5v-208l-31-4v-10h101v10" id="aI"/><g id="u"><use transform="matrix(0.05,0,0,0.05,0,0)" xlink:href="#aG"/><use transform="matrix(0.05,0,0,0.05,12.950000000000001,0)" xlink:href="#aH"/><use transform="matrix(0.05,0,0,0.05,28.950000000000003,0)" xlink:href="#aI"/></g><path d="M75-17c87 13 134-18 134-103 0-78-51-106-134-100v203zm171-102C246 5 139 7 10 0v-9l31-5v-208l-31-4v-10h107c82 0 129 35 129 117" id="aJ"/><path d="M125-118c4-37-41-34-68-26v132l23 4v8H8C5-13 21-9 28-12v-141c-7-3-23 1-20-12h47l2 13c31-23 98-29 98 31v109c7 3 23-1 20 12h-72v-8l22-4v-106" id="aK"/><path d="M126-118c4-37-42-32-68-25v131l24 4v8H8C5-13 21-9 28-12v-141c-7-3-23 1-20-12h48l1 13c22-15 77-30 92 2 32-22 104-36 104 29v109c8 3 24-2 21 12h-75v-8l25-4v-106c3-39-45-31-72-24 7 37 1 88 3 130l25 4v8h-78v-8l24-4v-106" id="aL"/><g id="v"><use transform="matrix(0.05,0,0,0.05,0,0)" xlink:href="#aJ"/><use transform="matrix(0.05,0,0,0.05,12.950000000000001,0)" xlink:href="#aF"/><use transform="matrix(0.05,0,0,0.05,21.950000000000003,0)" xlink:href="#aK"/><use transform="matrix(0.05,0,0,0.05,30.950000000000003,0)" xlink:href="#aD"/><use transform="matrix(0.05,0,0,0.05,38.900000000000006,0)" xlink:href="#aL"/><use transform="matrix(0.05,0,0,0.05,52.900000000000006,0)" xlink:href="#as"/><use transform="matrix(0.05,0,0,0.05,57.900000000000006,0)" xlink:href="#aA"/></g><path d="M75-108c48 3 76-12 76-58s-28-57-76-54v112zm111-58c-1 60-46 78-111 74v78l37 5v9H13v-9l28-5v-208l-31-4v-10c81 1 178-14 176 70" id="aM"/><path d="M90-170c52 0 76 32 76 87 0 54-24 87-77 87-51 0-75-34-75-87 0-54 24-87 76-87zM89-10c39 0 46-35 46-73 0-39-7-73-46-73-39 1-44 34-44 73s6 72 44 73" id="aN"/><g id="w"><use transform="matrix(0.05,0,0,0.05,0,0)" xlink:href="#aM"/><use transform="matrix(0.05,0,0,0.05,10,0)" xlink:href="#aw"/><use transform="matrix(0.05,0,0,0.05,15.949999999999998,0)" xlink:href="#aN"/><use transform="matrix(0.05,0,0,0.05,24.95,0)" xlink:href="#az"/><use transform="matrix(0.05,0,0,0.05,33.95,0)" xlink:href="#as"/><use transform="matrix(0.05,0,0,0.05,38.95,0)" xlink:href="#ay"/><use transform="matrix(0.05,0,0,0.05,47.95,0)" xlink:href="#av"/><use transform="matrix(0.05,0,0,0.05,55.900000000000006,0)" xlink:href="#aw"/></g><g id="x"><use transform="matrix(0.05,0,0,0.05,0,0)" xlink:href="#aK"/><use transform="matrix(0.05,0,0,0.05,9,0)" xlink:href="#aN"/><use transform="matrix(0.05,0,0,0.05,18,0)" xlink:href="#au"/></g><path d="M124-13C89 8 26 15 26-45v-108c-8-3-24 2-21-12h50v118c-3 37 42 32 69 25v-131l-25-4v-8h54v153c8 3 24-2 21 12h-48" id="aO"/><g id="y"><use transform="matrix(0.05,0,0,0.05,0,0)" xlink:href="#aB"/><use transform="matrix(0.05,0,0,0.05,5.95,0)" xlink:href="#aN"/><use transform="matrix(0.05,0,0,0.05,14.949999999999998,0)" xlink:href="#aO"/><use transform="matrix(0.05,0,0,0.05,23.95,0)" xlink:href="#aK"/><use transform="matrix(0.05,0,0,0.05,32.95,0)" xlink:href="#ay"/></g><path d="M52-115c0 93 80 130 150 87l7-35h11l-1 55c-23 7-52 12-83 12C60 4 19-37 15-115c-5-113 97-141 201-114l1 51h-12l-5-30c-15-9-39-16-62-16-66 0-86 41-86 109" id="aP"/><g id="z"><use transform="matrix(0.05,0,0,0.05,0,0)" xlink:href="#aP"/><use transform="matrix(0.05,0,0,0.05,12,0)" xlink:href="#aN"/><use transform="matrix(0.05,0,0,0.05,21,0)" xlink:href="#aK"/><use transform="matrix(0.05,0,0,0.05,30,0)" xlink:href="#az"/><use transform="matrix(0.05,0,0,0.05,39,0)" xlink:href="#av"/><use transform="matrix(0.05,0,0,0.05,46.95,0)" xlink:href="#aw"/><use transform="matrix(0.05,0,0,0.05,52.900000000000006,0)" xlink:href="#au"/><use transform="matrix(0.05,0,0,0.05,57.900000000000006,0)" xlink:href="#av"/><use transform="matrix(0.05,0,0,0.05,65.85000000000001,0)" xlink:href="#aw"/></g><path d="M106-76c4 61-43 93-98 74v-43h11c2 18 5 33 28 33 16 0 25-11 25-33v-177l-30-4v-10h91v10l-27 4v146" id="aQ"/><path d="M60-80l68-73c-7-3-20 0-17-12h58c3 13-13 9-20 12l-47 48 60 93c7 3 21-1 18 12h-68c-3-12 9-9 15-12L82-83 60-60v48c7 3 21-1 18 12H10v-8l21-4v-226l-24-4v-8h53v170" id="aR"/><path d="M41-130c7 48 86 23 86 84 0 56-69 57-112 41v-40c20 0 9 29 31 31 35 19 77-26 41-50-27-18-72-13-72-59 0-50 58-52 100-41v36c-19 1-8-25-28-25-21-7-50-1-46 23" id="aS"/><g id="A"><use transform="matrix(0.05,0,0,0.05,0,0)" xlink:href="#aQ"/><use transform="matrix(0.05,0,0,0.05,7,0)" xlink:href="#aD"/><use transform="matrix(0.05,0,0,0.05,14.949999999999998,0)" xlink:href="#aA"/><use transform="matrix(0.05,0,0,0.05,22.9,0)" xlink:href="#aR"/><use transform="matrix(0.05,0,0,0.05,31.899999999999995,0)" xlink:href="#aS"/><use transform="matrix(0.05,0,0,0.05,38.9,0)" xlink:href="#aN"/><use transform="matrix(0.05,0,0,0.05,47.9,0)" xlink:href="#aK"/></g><path d="M10 0v-8l90-143c-23 2-54-4-70 6-5 8 1 26-14 24v-44h122v8L47-14c29-2 65 3 86-8l9-35h8l-5 57H10" id="aT"/><g id="B"><use transform="matrix(0.05,0,0,0.05,0,0)" xlink:href="#aC"/><use transform="matrix(0.05,0,0,0.05,10,0)" xlink:href="#av"/><use transform="matrix(0.05,0,0,0.05,17.95,0)" xlink:href="#aw"/><use transform="matrix(0.05,0,0,0.05,23.9,0)" xlink:href="#as"/><use transform="matrix(0.05,0,0,0.05,28.899999999999995,0)" xlink:href="#aD"/><use transform="matrix(0.05,0,0,0.05,36.85,0)" xlink:href="#at"/><use transform="matrix(0.05,0,0,0.05,41.85,0)" xlink:href="#as"/><use transform="matrix(0.05,0,0,0.05,46.85,0)" xlink:href="#aT"/><use transform="matrix(0.05,0,0,0.05,54.800000000000004,0)" xlink:href="#av"/><use transform="matrix(0.05,0,0,0.05,62.75,0)" xlink:href="#aw"/></g><path d="M126-119c3-38-42-31-69-25v132l23 4v8H7v-8l21-4v-226l-24-4v-8h53l-1 98c31-22 99-31 99 31v109c7 3 23-1 20 12h-71v-8l22-4v-107" id="aU"/><g id="C"><use transform="matrix(0.05,0,0,0.05,0,0)" xlink:href="#aP"/><use transform="matrix(0.05,0,0,0.05,12,0)" xlink:href="#aD"/><use transform="matrix(0.05,0,0,0.05,19.95,0)" xlink:href="#aA"/><use transform="matrix(0.05,0,0,0.05,27.899999999999995,0)" xlink:href="#aU"/><use transform="matrix(0.05,0,0,0.05,36.9,0)" xlink:href="#av"/></g></defs></g></svg>