<svg id="Layer_1" data-name="Layer 1" xmlns="http://www.w3.org/2000/svg" viewBox="0 0 720 288"><defs><style>.cls-1{font-size:190.81px;fill:#4279af;font-family:RomanticItalic, Romantic;font-style:italic;}.cls-2{fill:#96cb5d;}</style></defs><title>Artboard 1</title><text class="cls-1" transform="translate(213.38 171.86)">jFilter</text><path class="cls-2" d="M228.3,52.44a17.18,17.18,0,0,0-16.13-10.78H42.48A17.44,17.44,0,0,0,30.14,71.43l78.2,78.13v87.78a8.89,8.89,0,0,0,5.27,8.18,9.05,9.05,0,0,0,3.75.82,8.92,8.92,0,0,0,5.89-2.24L140.51,229a17,17,0,0,0,5.8-12.78V149.56l78.2-78.13A17.16,17.16,0,0,0,228.3,52.44Zm-8,14.76-78.2,78.13H123.33a3,3,0,0,0,0,6h17v64.93a11,11,0,0,1-3.75,8.26l-17.26,15.09a3,3,0,0,1-5-2.25V147.07l-80-79.88a11.44,11.44,0,0,1,8.1-19.53H212.17a11.44,11.44,0,0,1,8.1,19.54Z"/></svg>